<mxfile host="app.diagrams.net" modified="2023-06-02T14:13:41.687Z" agent="Mozilla/5.0 (Windows NT 10.0; Win64; x64) AppleWebKit/537.36 (KHTML, like Gecko) Chrome/114.0.0.0 Safari/537.36" etag="qGUkf-2Hj3761Y_57vMr" version="21.3.4" type="device">
  <diagram id="C5RBs43oDa-KdzZeNtuy" name="Page-1">
    <mxGraphModel dx="284" dy="165" grid="1" gridSize="10" guides="1" tooltips="1" connect="1" arrows="1" fold="1" page="1" pageScale="1" pageWidth="827" pageHeight="1169" math="0" shadow="0">
      <root>
        <mxCell id="WIyWlLk6GJQsqaUBKTNV-0" />
        <mxCell id="WIyWlLk6GJQsqaUBKTNV-1" parent="WIyWlLk6GJQsqaUBKTNV-0" />
        <mxCell id="NhvEhMI3FrdmYwU15fbO-18" value="main" style="swimlane;fontStyle=1;align=center;verticalAlign=top;childLayout=stackLayout;horizontal=1;startSize=26;horizontalStack=0;resizeParent=1;resizeParentMax=0;resizeLast=0;collapsible=1;marginBottom=0;whiteSpace=wrap;html=1;" vertex="1" collapsed="1" parent="WIyWlLk6GJQsqaUBKTNV-1">
          <mxGeometry x="20" y="340" width="130" height="60" as="geometry">
            <mxRectangle x="20" y="300" width="220" height="112" as="alternateBounds" />
          </mxGeometry>
        </mxCell>
        <mxCell id="NhvEhMI3FrdmYwU15fbO-19" value="+ task1(void *) : void&lt;br&gt;+ setupScreenInterface() : void&lt;br&gt;+ sendPostRequest(int) : void&lt;br&gt;+ setup() : void&lt;br&gt;+ loop() : void" style="text;strokeColor=none;fillColor=none;align=left;verticalAlign=top;spacingLeft=4;spacingRight=4;overflow=hidden;rotatable=0;points=[[0,0.5],[1,0.5]];portConstraint=eastwest;whiteSpace=wrap;html=1;" vertex="1" parent="NhvEhMI3FrdmYwU15fbO-18">
          <mxGeometry y="26" width="220" height="86" as="geometry" />
        </mxCell>
        <mxCell id="NhvEhMI3FrdmYwU15fbO-22" value="HR2046" style="swimlane;fontStyle=1;align=center;verticalAlign=top;childLayout=stackLayout;horizontal=1;startSize=26;horizontalStack=0;resizeParent=1;resizeLast=0;collapsible=1;marginBottom=0;rounded=0;shadow=0;strokeWidth=1;" vertex="1" collapsed="1" parent="WIyWlLk6GJQsqaUBKTNV-1">
          <mxGeometry x="5" y="200" width="160" height="80" as="geometry">
            <mxRectangle x="20" y="40" width="220" height="190" as="alternateBounds" />
          </mxGeometry>
        </mxCell>
        <mxCell id="NhvEhMI3FrdmYwU15fbO-23" value="+ HR2046(SPIClass &amp;spi, uint8_t cs)&#xa;+ init() : void&#xa;+ powerDown() : void&#xa;+ readRaw(uint8_t target) : uint16_t&#xa;+ readRaw(uint16_t &amp;x, uint16_t &amp;y, &#xa;uint32_t &amp;z) : void&#xa; " style="text;align=left;verticalAlign=top;spacingLeft=4;spacingRight=4;overflow=hidden;rotatable=0;points=[[0,0.5],[1,0.5]];portConstraint=eastwest;" vertex="1" parent="NhvEhMI3FrdmYwU15fbO-22">
          <mxGeometry y="26" width="220" height="94" as="geometry" />
        </mxCell>
        <mxCell id="NhvEhMI3FrdmYwU15fbO-26" value="" style="line;html=1;strokeWidth=1;align=left;verticalAlign=middle;spacingTop=-1;spacingLeft=3;spacingRight=3;rotatable=0;labelPosition=right;points=[];portConstraint=eastwest;" vertex="1" parent="NhvEhMI3FrdmYwU15fbO-22">
          <mxGeometry y="120" width="220" height="8" as="geometry" />
        </mxCell>
        <mxCell id="NhvEhMI3FrdmYwU15fbO-27" value="- &amp;spi : SPIClass&#xa;- cs : uint8_t" style="text;align=left;verticalAlign=top;spacingLeft=4;spacingRight=4;overflow=hidden;rotatable=0;points=[[0,0.5],[1,0.5]];portConstraint=eastwest;" vertex="1" parent="NhvEhMI3FrdmYwU15fbO-22">
          <mxGeometry y="128" width="220" height="62" as="geometry" />
        </mxCell>
        <mxCell id="NhvEhMI3FrdmYwU15fbO-29" value="N4094" style="swimlane;fontStyle=1;align=center;verticalAlign=top;childLayout=stackLayout;horizontal=1;startSize=26;horizontalStack=0;resizeParent=1;resizeLast=0;collapsible=1;marginBottom=0;rounded=0;shadow=0;strokeWidth=1;" vertex="1" collapsed="1" parent="WIyWlLk6GJQsqaUBKTNV-1">
          <mxGeometry x="400" y="560" width="160" height="90" as="geometry">
            <mxRectangle x="560" y="990" width="210" height="130" as="alternateBounds" />
          </mxGeometry>
        </mxCell>
        <mxCell id="NhvEhMI3FrdmYwU15fbO-30" value="+ N4094(SPIClass &amp;spi, uint8_t cs)&#xa;+ init() : void&#xa;+ write(uint16_t value) : void&#xa; " style="text;align=left;verticalAlign=top;spacingLeft=4;spacingRight=4;overflow=hidden;rotatable=0;points=[[0,0.5],[1,0.5]];portConstraint=eastwest;" vertex="1" parent="NhvEhMI3FrdmYwU15fbO-29">
          <mxGeometry y="26" width="210" height="54" as="geometry" />
        </mxCell>
        <mxCell id="NhvEhMI3FrdmYwU15fbO-31" value="" style="line;html=1;strokeWidth=1;align=left;verticalAlign=middle;spacingTop=-1;spacingLeft=3;spacingRight=3;rotatable=0;labelPosition=right;points=[];portConstraint=eastwest;" vertex="1" parent="NhvEhMI3FrdmYwU15fbO-29">
          <mxGeometry y="80" width="210" height="8" as="geometry" />
        </mxCell>
        <mxCell id="NhvEhMI3FrdmYwU15fbO-32" value="- &amp;spi : SPIClass&#xa;- cs : uint8_t" style="text;align=left;verticalAlign=top;spacingLeft=4;spacingRight=4;overflow=hidden;rotatable=0;points=[[0,0.5],[1,0.5]];portConstraint=eastwest;" vertex="1" parent="NhvEhMI3FrdmYwU15fbO-29">
          <mxGeometry y="88" width="210" height="42" as="geometry" />
        </mxCell>
        <mxCell id="NhvEhMI3FrdmYwU15fbO-33" value="Time" style="swimlane;fontStyle=1;align=center;verticalAlign=top;childLayout=stackLayout;horizontal=1;startSize=26;horizontalStack=0;resizeParent=1;resizeLast=0;collapsible=1;marginBottom=0;rounded=0;shadow=0;strokeWidth=1;" vertex="1" collapsed="1" parent="WIyWlLk6GJQsqaUBKTNV-1">
          <mxGeometry x="383" y="330" width="160" height="80" as="geometry">
            <mxRectangle x="560" y="40" width="230" height="260" as="alternateBounds" />
          </mxGeometry>
        </mxCell>
        <mxCell id="NhvEhMI3FrdmYwU15fbO-34" value="+ Time(tmElements_t, NTPClient);&#xa;+ setupNTP() : void&#xa;+ setTime(int hour, int min, int sec) : bool&#xa;+ setDate(const char *str) : bool&#xa;+ getTime(char * instring) : void&#xa;+ getDate(char * instring) : void&#xa;+ printTime() : void&#xa;+ printDate() : void+ tm_ : tmElements_t&#xa;+ timeClient_ : NTPClient&#xa;+ tm_ : tmElements_t " style="text;align=left;verticalAlign=top;spacingLeft=4;spacingRight=4;overflow=hidden;rotatable=0;points=[[0,0.5],[1,0.5]];portConstraint=eastwest;" vertex="1" parent="NhvEhMI3FrdmYwU15fbO-33">
          <mxGeometry y="26" width="230" height="154" as="geometry" />
        </mxCell>
        <mxCell id="NhvEhMI3FrdmYwU15fbO-35" value="" style="line;html=1;strokeWidth=1;align=left;verticalAlign=middle;spacingTop=-1;spacingLeft=3;spacingRight=3;rotatable=0;labelPosition=right;points=[];portConstraint=eastwest;" vertex="1" parent="NhvEhMI3FrdmYwU15fbO-33">
          <mxGeometry y="180" width="230" height="8" as="geometry" />
        </mxCell>
        <mxCell id="NhvEhMI3FrdmYwU15fbO-36" value="- monthName_[12] : const char *&#xa;- weekDays[7] : String&#xa;- timeOffset_ : long&#xa;- DST_ : bool" style="text;align=left;verticalAlign=top;spacingLeft=4;spacingRight=4;overflow=hidden;rotatable=0;points=[[0,0.5],[1,0.5]];portConstraint=eastwest;" vertex="1" parent="NhvEhMI3FrdmYwU15fbO-33">
          <mxGeometry y="188" width="230" height="72" as="geometry" />
        </mxCell>
        <mxCell id="NhvEhMI3FrdmYwU15fbO-37" value="WifiConnect" style="swimlane;fontStyle=1;align=center;verticalAlign=top;childLayout=stackLayout;horizontal=1;startSize=26;horizontalStack=0;resizeParent=1;resizeLast=0;collapsible=1;marginBottom=0;rounded=0;shadow=0;strokeWidth=1;" vertex="1" collapsed="1" parent="WIyWlLk6GJQsqaUBKTNV-1">
          <mxGeometry x="223" y="200" width="160" height="80" as="geometry">
            <mxRectangle x="298" y="40" width="220" height="240" as="alternateBounds" />
          </mxGeometry>
        </mxCell>
        <mxCell id="NhvEhMI3FrdmYwU15fbO-38" value="+ WifiConnect();&#xa;+ BeginWiFiConnection() : void&#xa;+ ScanForWiFiSignal() : void&#xa;+ ConnectToWiFi() : void&#xa;+ WiFiConnectStatus(const char *ssid,&#xa; const char *password) : void&#xa;+ DisconnectFromWiFi() : void&#xa;+ setupWifi() : void&#xa;+ *ssid_ : const char&#xa;+ *password_ : const char" style="text;align=left;verticalAlign=top;spacingLeft=4;spacingRight=4;overflow=hidden;rotatable=0;points=[[0,0.5],[1,0.5]];portConstraint=eastwest;" vertex="1" parent="NhvEhMI3FrdmYwU15fbO-37">
          <mxGeometry y="26" width="220" height="154" as="geometry" />
        </mxCell>
        <mxCell id="NhvEhMI3FrdmYwU15fbO-39" value="" style="line;html=1;strokeWidth=1;align=left;verticalAlign=middle;spacingTop=-1;spacingLeft=3;spacingRight=3;rotatable=0;labelPosition=right;points=[];portConstraint=eastwest;" vertex="1" parent="NhvEhMI3FrdmYwU15fbO-37">
          <mxGeometry y="180" width="220" height="8" as="geometry" />
        </mxCell>
        <mxCell id="NhvEhMI3FrdmYwU15fbO-40" value="- networkList : int&#xa;- ledPin_ : int" style="text;align=left;verticalAlign=top;spacingLeft=4;spacingRight=4;overflow=hidden;rotatable=0;points=[[0,0.5],[1,0.5]];portConstraint=eastwest;" vertex="1" parent="NhvEhMI3FrdmYwU15fbO-37">
          <mxGeometry y="188" width="220" height="42" as="geometry" />
        </mxCell>
        <mxCell id="NhvEhMI3FrdmYwU15fbO-41" value="font" style="swimlane;fontStyle=1;align=center;verticalAlign=top;childLayout=stackLayout;horizontal=1;startSize=26;horizontalStack=0;resizeParent=1;resizeLast=0;collapsible=1;marginBottom=0;rounded=0;shadow=0;strokeWidth=1;" vertex="1" collapsed="1" parent="WIyWlLk6GJQsqaUBKTNV-1">
          <mxGeometry x="223" y="560" width="160" height="90" as="geometry">
            <mxRectangle x="308" y="960" width="210" height="160" as="alternateBounds" />
          </mxGeometry>
        </mxCell>
        <mxCell id="NhvEhMI3FrdmYwU15fbO-42" value="+ font();&#xa;+ charToPixels8(char letter,&#xa; char * instring) : bool&#xa;+ charToPixels16(char letter,&#xa; char * instring) : bool" style="text;align=left;verticalAlign=top;spacingLeft=4;spacingRight=4;overflow=hidden;rotatable=0;points=[[0,0.5],[1,0.5]];portConstraint=eastwest;" vertex="1" parent="NhvEhMI3FrdmYwU15fbO-41">
          <mxGeometry y="26" width="210" height="84" as="geometry" />
        </mxCell>
        <mxCell id="NhvEhMI3FrdmYwU15fbO-43" value="" style="line;html=1;strokeWidth=1;align=left;verticalAlign=middle;spacingTop=-1;spacingLeft=3;spacingRight=3;rotatable=0;labelPosition=right;points=[];portConstraint=eastwest;" vertex="1" parent="NhvEhMI3FrdmYwU15fbO-41">
          <mxGeometry y="110" width="210" height="8" as="geometry" />
        </mxCell>
        <mxCell id="NhvEhMI3FrdmYwU15fbO-44" value="- myFont_[256][8]: unsigned char&#xa;- myFont16_[96][32] : unsigned char" style="text;align=left;verticalAlign=top;spacingLeft=4;spacingRight=4;overflow=hidden;rotatable=0;points=[[0,0.5],[1,0.5]];portConstraint=eastwest;" vertex="1" parent="NhvEhMI3FrdmYwU15fbO-41">
          <mxGeometry y="118" width="210" height="42" as="geometry" />
        </mxCell>
        <mxCell id="NhvEhMI3FrdmYwU15fbO-49" value="ssd1963_displayDriver" style="swimlane;fontStyle=1;align=center;verticalAlign=top;childLayout=stackLayout;horizontal=1;startSize=26;horizontalStack=0;resizeParent=1;resizeLast=0;collapsible=1;marginBottom=0;rounded=0;shadow=0;strokeWidth=1;" vertex="1" collapsed="1" parent="WIyWlLk6GJQsqaUBKTNV-1">
          <mxGeometry x="223" y="430" width="160" height="90" as="geometry">
            <mxRectangle x="223" y="430" width="380" height="470" as="alternateBounds" />
          </mxGeometry>
        </mxCell>
        <mxCell id="NhvEhMI3FrdmYwU15fbO-50" value="+ ssd1963(N4094 shiftRegister, ssd1963_gpio gpioControl)&#xa;+ insertFrame(int length, int height, int x,&#xa; int y, int color, char* centeredText, bool smallText) : void &#xa;+ DisplayInit() : void&#xa;+ DisplayReset() : void&#xa;+ DisplayOff() : void&#xa;+ DisplayOn() : void&#xa;+ EnterSleepMode() : void&#xa;+ ExitSleepMode() : void&#xa;+ MemoryAccessControl(unsigned char parameter) : void&#xa;+ InterfacePixelFormat(unsigned char parameter) : void&#xa;+ SetColumnAddress(uint16_t Start, uint16_t End) : void&#xa;+ SetPageAddress(uint16_t Start, uint16_t End) : void&#xa;+ MemoryWrite() : void&#xa;+ FillRectangle(unsigned int StartX, unsigned int StartY, &#xa;unsigned int Width, unsigned int Height, unsigned char Red, &#xa;unsigned char Green, unsigned char Blue) : void&#xa;+ setColRowStartStop(uint16_t x_ColStart, &#xa;uint16_t y_RowStart, uint16_t x_ColEnd, uint16_t y_RowEnd) : void&#xa;+ fill(uint16_t x_ColStart, uint16_t y_RowStart, &#xa;uint16_t x_ColEnd, uint16_t y_RowEnd, Color color) : void&#xa;+ writeChar(uint16_t x_ColStart, uint16_t y_RowStart,&#xa;char character, Color color, font * font, bool fontsize_8) : void&#xa;+ writeString(uint16_t x_ColStart, uint16_t y_RowStart,&#xa; char * stringArray, Color color, font * font, bool fontsize_8) : void" style="text;align=left;verticalAlign=top;spacingLeft=4;spacingRight=4;overflow=hidden;rotatable=0;points=[[0,0.5],[1,0.5]];portConstraint=eastwest;" vertex="1" parent="NhvEhMI3FrdmYwU15fbO-49">
          <mxGeometry y="26" width="380" height="364" as="geometry" />
        </mxCell>
        <mxCell id="NhvEhMI3FrdmYwU15fbO-51" value="" style="line;html=1;strokeWidth=1;align=left;verticalAlign=middle;spacingTop=-1;spacingLeft=3;spacingRight=3;rotatable=0;labelPosition=right;points=[];portConstraint=eastwest;" vertex="1" parent="NhvEhMI3FrdmYwU15fbO-49">
          <mxGeometry y="390" width="380" height="8" as="geometry" />
        </mxCell>
        <mxCell id="NhvEhMI3FrdmYwU15fbO-52" value="- ssdDataSlow(uint8_t value) : void &#xa;- ssdCmdSlow(uint8_t value) : void&#xa;- shiftRegister_ : N4094 &#xa;- gpioControl_ : ssd1963_gpio" style="text;align=left;verticalAlign=top;spacingLeft=4;spacingRight=4;overflow=hidden;rotatable=0;points=[[0,0.5],[1,0.5]];portConstraint=eastwest;" vertex="1" parent="NhvEhMI3FrdmYwU15fbO-49">
          <mxGeometry y="398" width="380" height="72" as="geometry" />
        </mxCell>
        <mxCell id="NhvEhMI3FrdmYwU15fbO-53" value="ssd1963_gpio" style="swimlane;fontStyle=1;align=center;verticalAlign=top;childLayout=stackLayout;horizontal=1;startSize=26;horizontalStack=0;resizeParent=1;resizeLast=0;collapsible=1;marginBottom=0;rounded=0;shadow=0;strokeWidth=1;" vertex="1" collapsed="1" parent="WIyWlLk6GJQsqaUBKTNV-1">
          <mxGeometry x="50" y="560" width="160" height="90" as="geometry">
            <mxRectangle x="40" y="930" width="240" height="190" as="alternateBounds" />
          </mxGeometry>
        </mxCell>
        <mxCell id="NhvEhMI3FrdmYwU15fbO-54" value="+ ssd1963_gpio(gpio_num_t controlPins[])&#xa;+ initGpioPins() : void&#xa;+ RST_setLevel(bool level) : void&#xa;+ RS_setLevel(bool level) : void&#xa;+ WR_setLevel(bool level) : void&#xa;+ CS_setLevel(bool level) : void&#xa;+ WR_pulse() : void" style="text;align=left;verticalAlign=top;spacingLeft=4;spacingRight=4;overflow=hidden;rotatable=0;points=[[0,0.5],[1,0.5]];portConstraint=eastwest;" vertex="1" parent="NhvEhMI3FrdmYwU15fbO-53">
          <mxGeometry y="26" width="240" height="104" as="geometry" />
        </mxCell>
        <mxCell id="NhvEhMI3FrdmYwU15fbO-55" value="" style="line;html=1;strokeWidth=1;align=left;verticalAlign=middle;spacingTop=-1;spacingLeft=3;spacingRight=3;rotatable=0;labelPosition=right;points=[];portConstraint=eastwest;" vertex="1" parent="NhvEhMI3FrdmYwU15fbO-53">
          <mxGeometry y="130" width="240" height="8" as="geometry" />
        </mxCell>
        <mxCell id="NhvEhMI3FrdmYwU15fbO-56" value="- controlPins_[4] : gpio_num_t&#xa;- io_config_ : gpio_config_t&#xa;- control_config_ : gpio_config_t" style="text;align=left;verticalAlign=top;spacingLeft=4;spacingRight=4;overflow=hidden;rotatable=0;points=[[0,0.5],[1,0.5]];portConstraint=eastwest;" vertex="1" parent="NhvEhMI3FrdmYwU15fbO-53">
          <mxGeometry y="138" width="240" height="52" as="geometry" />
        </mxCell>
        <mxCell id="NhvEhMI3FrdmYwU15fbO-57" value="Use" style="endArrow=open;endSize=12;dashed=1;html=1;rounded=0;entryX=0.5;entryY=0;entryDx=0;entryDy=0;" edge="1" parent="WIyWlLk6GJQsqaUBKTNV-1" source="NhvEhMI3FrdmYwU15fbO-52" target="NhvEhMI3FrdmYwU15fbO-41">
          <mxGeometry width="160" relative="1" as="geometry">
            <mxPoint x="610" y="970" as="sourcePoint" />
            <mxPoint x="770" y="970" as="targetPoint" />
          </mxGeometry>
        </mxCell>
        <mxCell id="NhvEhMI3FrdmYwU15fbO-58" value="1" style="endArrow=open;html=1;endSize=12;startArrow=diamondThin;startSize=14;startFill=0;edgeStyle=orthogonalEdgeStyle;align=left;verticalAlign=bottom;rounded=0;exitX=0;exitY=0.5;exitDx=0;exitDy=0;entryX=0.5;entryY=0;entryDx=0;entryDy=0;" edge="1" parent="WIyWlLk6GJQsqaUBKTNV-1" source="NhvEhMI3FrdmYwU15fbO-50" target="NhvEhMI3FrdmYwU15fbO-53">
          <mxGeometry x="-0.7416" y="-25" relative="1" as="geometry">
            <mxPoint x="40" y="670" as="sourcePoint" />
            <mxPoint x="200" y="670" as="targetPoint" />
            <mxPoint as="offset" />
          </mxGeometry>
        </mxCell>
        <mxCell id="NhvEhMI3FrdmYwU15fbO-59" value="1" style="endArrow=open;html=1;endSize=12;startArrow=diamondThin;startSize=14;startFill=0;edgeStyle=orthogonalEdgeStyle;align=left;verticalAlign=bottom;rounded=0;exitX=1;exitY=0.5;exitDx=0;exitDy=0;entryX=0.5;entryY=0;entryDx=0;entryDy=0;" edge="1" parent="WIyWlLk6GJQsqaUBKTNV-1" source="NhvEhMI3FrdmYwU15fbO-50" target="NhvEhMI3FrdmYwU15fbO-29">
          <mxGeometry x="-0.8132" y="15" relative="1" as="geometry">
            <mxPoint x="233" y="648" as="sourcePoint" />
            <mxPoint x="170" y="940" as="targetPoint" />
            <mxPoint as="offset" />
          </mxGeometry>
        </mxCell>
        <mxCell id="NhvEhMI3FrdmYwU15fbO-60" value="Use" style="endArrow=open;endSize=12;dashed=1;html=1;rounded=0;exitX=0.5;exitY=0;exitDx=0;exitDy=0;" edge="1" parent="WIyWlLk6GJQsqaUBKTNV-1" source="NhvEhMI3FrdmYwU15fbO-18" target="NhvEhMI3FrdmYwU15fbO-27">
          <mxGeometry width="160" relative="1" as="geometry">
            <mxPoint x="370" y="370" as="sourcePoint" />
            <mxPoint x="130" y="230" as="targetPoint" />
          </mxGeometry>
        </mxCell>
        <mxCell id="NhvEhMI3FrdmYwU15fbO-61" value="Use" style="endArrow=open;endSize=12;dashed=1;html=1;rounded=0;exitX=1;exitY=0.5;exitDx=0;exitDy=0;" edge="1" parent="WIyWlLk6GJQsqaUBKTNV-1" source="NhvEhMI3FrdmYwU15fbO-19" target="NhvEhMI3FrdmYwU15fbO-36">
          <mxGeometry width="160" relative="1" as="geometry">
            <mxPoint x="140" y="310" as="sourcePoint" />
            <mxPoint x="690" y="369" as="targetPoint" />
            <Array as="points" />
          </mxGeometry>
        </mxCell>
        <mxCell id="NhvEhMI3FrdmYwU15fbO-62" value="Use" style="endArrow=open;endSize=12;dashed=1;html=1;rounded=0;entryX=0.5;entryY=1;entryDx=0;entryDy=0;" edge="1" parent="WIyWlLk6GJQsqaUBKTNV-1" target="NhvEhMI3FrdmYwU15fbO-37">
          <mxGeometry width="160" relative="1" as="geometry">
            <mxPoint x="303" y="370" as="sourcePoint" />
            <mxPoint x="490" y="350" as="targetPoint" />
          </mxGeometry>
        </mxCell>
        <mxCell id="NhvEhMI3FrdmYwU15fbO-63" value="Use" style="endArrow=open;endSize=12;dashed=1;html=1;rounded=0;entryX=0.5;entryY=0;entryDx=0;entryDy=0;" edge="1" parent="WIyWlLk6GJQsqaUBKTNV-1" target="NhvEhMI3FrdmYwU15fbO-49">
          <mxGeometry width="160" relative="1" as="geometry">
            <mxPoint x="303" y="370" as="sourcePoint" />
            <mxPoint x="450" y="330" as="targetPoint" />
          </mxGeometry>
        </mxCell>
      </root>
    </mxGraphModel>
  </diagram>
</mxfile>
